<svg width="16" height="16" viewBox="-3 -3 23 31" fill="none" xmlns="http://www.w3.org/2000/svg">
<path d="M12.996 8.24398H13.932V16.668H12.996L12.312 13.968C12.24 13.68 12.156 13.476 12.06 13.356C11.988 13.212 11.832 13.128 11.592 13.104C11.352 13.056 10.944 13.032 10.368 13.032H5.90397V21.564C5.90397 22.404 5.93997 22.908 6.01197 23.076C6.08397 23.22 6.31197 23.304 6.69597 23.328L9.39597 23.544V24.48H-2.73287e-05V23.544L1.97997 23.328C2.36397 23.28 2.59197 23.184 2.66397 23.04C2.73597 22.896 2.77197 22.404 2.77197 21.564V2.91598C2.77197 2.07598 2.73597 1.58398 2.66397 1.43998C2.59197 1.29598 2.36397 1.19998 1.97997 1.15198L-2.73287e-05 0.971978V-1.97887e-05H16.452V5.86798H15.516L14.472 2.08798C14.376 1.67998 14.232 1.42798 14.04 1.33198C13.872 1.21198 13.368 1.15198 12.528 1.15198H5.90397V11.88H10.368C10.944 11.88 11.352 11.868 11.592 11.844C11.832 11.796 11.988 11.712 12.06 11.592C12.156 11.448 12.24 11.232 12.312 10.944L12.996 8.24398Z" fill="white"/>
</svg>
